<?xml version="1.0" standalone="no"?>
<!DOCTYPE svg PUBLIC "-//W3C//DTD SVG 20010904//EN"
 "http://www.w3.org/TR/2001/REC-SVG-20010904/DTD/svg10.dtd">
<svg version="1.0" xmlns="http://www.w3.org/2000/svg"
 width="1024.000000pt" height="1024.000000pt" viewBox="0 0 1024.000000 1024.000000"
 preserveAspectRatio="xMidYMid meet">

<g transform="translate(0.000000,1024.000000) scale(0.100000,-0.100000)"
fill="#000000" stroke="none">
<path d="M6674 7823 c3 -21 6 -65 6 -98 l0 -60 115 3 115 3 0 57 c0 31 3 74 6
95 l7 37 -128 0 -128 0 7 -37z"/>
<path d="M7373 7795 c-151 -42 -235 -142 -236 -279 -1 -104 70 -214 175 -272
47 -26 63 -29 139 -29 78 0 90 3 135 30 32 20 58 46 74 76 14 25 39 62 55 84
27 35 30 45 29 109 0 53 -6 82 -23 114 -71 138 -212 205 -348 167z m129 -196
c22 -12 48 -66 48 -103 0 -31 -49 -73 -95 -82 -57 -10 -84 2 -105 49 -42 90
-11 147 80 147 28 0 60 -5 72 -11z"/>
<path d="M7526 7507 c3 -10 9 -15 12 -12 3 3 0 11 -7 18 -10 9 -11 8 -5 -6z"/>
<path d="M5200 7773 c-205 -20 -366 -54 -552 -114 l-128 -42 0 -227 c0 -125
-3 -287 -6 -361 l-7 -134 392 0 391 0 0 443 0 442 -27 -2 c-16 0 -44 -3 -63
-5z"/>
<path d="M5514 7754 c3 -9 6 -204 6 -435 l0 -419 59 0 c214 0 514 -117 716
-278 225 -180 397 -426 472 -674 l14 -48 439 0 439 0 -24 88 c-104 388 -294
764 -517 1021 -174 200 -522 446 -798 563 -270 115 -481 169 -753 192 -50 4
-58 2 -53 -10z"/>
<path d="M3216 7740 c-88 -34 -134 -100 -143 -201 -5 -46 -1 -66 19 -111 31
-68 64 -99 129 -122 65 -24 149 -18 214 14 41 21 56 37 87 90 48 82 54 115 34
182 -39 134 -198 203 -340 148z"/>
<path d="M4235 7490 c-3 -5 -32 -23 -63 -40 -32 -17 -91 -56 -132 -87 -41 -31
-99 -71 -129 -89 l-53 -33 -5 -830 -4 -830 201 -3 200 -3 0 963 c0 529 -2 962
-4 962 -3 0 -7 -4 -11 -10z"/>
<path d="M3094 7006 c-58 -26 -62 -150 -5 -193 23 -18 116 -16 135 2 19 19 29
91 18 129 -15 56 -91 87 -148 62z"/>
<path d="M7540 6900 l0 -100 100 0 100 0 0 78 c0 126 3 122 -106 122 l-94 0 0
-100z"/>
<path d="M3542 6912 c-17 -26 -59 -85 -93 -132 -78 -110 -207 -367 -252 -506
-56 -170 -116 -434 -128 -566 -6 -66 -9 -121 -7 -123 2 -2 124 -5 271 -7 l268
-3 -7 685 c-3 377 -9 688 -13 692 -3 4 -21 -14 -39 -40z"/>
<path d="M4523 5512 l2 -1093 550 4 550 3 92 27 c50 14 130 42 177 61 132 53
291 174 338 258 12 21 27 38 34 38 7 0 22 21 35 46 12 26 30 49 40 51 11 3 26
27 39 62 11 31 27 67 35 81 90 151 132 387 106 600 -19 149 -47 246 -111 375
-73 148 -159 259 -271 348 -90 73 -236 150 -359 191 -132 43 -207 48 -752 44
l-507 -3 2 -1093z m1057 548 c147 -42 249 -113 319 -225 77 -121 108 -243 97
-371 -18 -196 -109 -348 -264 -441 -142 -84 -155 -87 -439 -88 l-253 0 0 336
c0 185 3 445 7 579 l6 243 226 -6 c188 -5 238 -9 301 -27z"/>
<path d="M6800 5548 l0 -118 445 0 445 0 0 115 0 114 -32 6 c-18 4 -219 5
-445 3 l-413 -3 0 -117z"/>
<path d="M3074 5289 c20 -155 40 -284 58 -368 54 -255 209 -580 377 -793 29
-38 57 -68 62 -68 5 0 11 -1 14 -2 3 -2 6 284 8 635 l3 637 -106 0 c-58 0
-176 3 -264 7 l-158 6 6 -54z"/>
<path d="M3850 4580 c0 -417 3 -772 6 -789 5 -24 24 -45 83 -89 125 -95 306
-201 313 -184 2 4 1 414 -2 912 l-5 905 -197 1 -198 2 0 -758z"/>
<path d="M7194 5193 l-422 -3 -6 -38 c-27 -148 -116 -348 -214 -478 -56 -74
-161 -183 -242 -251 -186 -158 -540 -303 -737 -303 l-58 0 0 -460 c0 -404 2
-459 15 -455 8 2 73 14 144 25 192 31 350 74 530 144 284 112 452 206 667 375
117 93 321 315 392 428 14 23 31 44 37 48 6 3 22 30 36 58 15 29 34 61 44 72
42 49 159 295 197 415 28 89 82 316 89 373 l6 57 -28 -2 c-16 -2 -219 -4 -450
-5z"/>
<path d="M4511 3833 c1 -159 4 -328 8 -378 l6 -89 90 -28 c152 -48 272 -76
466 -107 102 -17 192 -31 200 -31 12 0 14 64 11 460 l-2 460 -390 0 -390 0 1
-287z"/>
<path d="M7344 3772 c-134 -47 -229 -190 -210 -316 17 -111 115 -238 205 -264
85 -26 222 -10 283 32 28 20 109 134 119 168 28 100 1 204 -77 287 -89 97
-211 132 -320 93z m166 -208 c17 -15 38 -40 46 -56 15 -28 14 -34 -2 -70 -29
-64 -139 -102 -186 -65 -28 21 -58 81 -58 114 0 73 33 101 122 102 36 1 53 -5
78 -25z"/>
<path d="M7335 3520 c4 -6 11 -8 16 -5 14 9 11 15 -7 15 -8 0 -12 -5 -9 -10z"/>
<path d="M3284 3729 c-49 -9 -132 -49 -156 -76 -55 -60 -75 -193 -43 -284 46
-128 205 -176 350 -104 76 37 145 136 145 209 0 47 -26 123 -56 163 -49 65
-158 107 -240 92z"/>
<path d="M3876 3279 c-9 -49 -7 -138 4 -160 9 -16 22 -19 94 -19 97 0 96 -1
96 98 0 112 2 109 -99 111 l-88 2 -7 -32z"/>
<path d="M6742 3303 l-73 -4 3 -95 3 -95 117 3 c64 2 118 5 121 8 3 3 8 47 12
98 l7 92 -58 -2 c-33 -1 -92 -4 -132 -5z"/>
</g>
</svg>
